<svg xmlns="http://www.w3.org/2000/svg" viewBox="0 0 42 42"><defs><style>.a,.b{fill:#f88e04;}.a{fill-rule:evenodd;opacity:0.12;}</style></defs><g transform="translate(-342 -478)"><path class="a" d="M468.088,951.3a21,21,0,1,1-21,21A21,21,0,0,1,468.088,951.3Z" transform="translate(-105.088 -473.303)"/><g transform="translate(356 488)"><path class="b" d="M468.693,971.927l1.267,3.218a17.763,17.763,0,0,0,2.276-7.844c1.849.348,3.425,2.252,5.094,5.989a7.867,7.867,0,0,0-.062-1.033,7,7,0,0,0-.315-1,4.293,4.293,0,0,1-.284-1.1,14.2,14.2,0,0,1,1.409,1.268,12.987,12.987,0,0,1,3.3,7.557,8.424,8.424,0,0,1-2.956,7.164,24.285,24.285,0,0,1-2.845,2.111c1.657-3.344,1.8-6.481-1.056-9.439a8.491,8.491,0,0,1-2.456,5.775l.314-3.108-.213-.02a5.426,5.426,0,0,0-.343,6.763c-3.214-1.166-5.61-4.485-5.426-7.521a9.948,9.948,0,0,1,.573-2.68c.7-1.977,1.746-3.855,1.491-6.081Z" transform="translate(-466.386 -967.302)"/></g></g></svg>