<svg xmlns="http://www.w3.org/2000/svg" viewBox="0 0 42 42"><defs><style>.a,.b{fill:#46c1bf;}.a{opacity:0.2;}</style></defs><g transform="translate(-342 -197)"><path class="a" d="M21,0A21,21,0,1,1,0,21,21,21,0,0,1,21,0Z" transform="translate(342 197)"/><g transform="translate(352 207)"><path class="b" d="M468.7,610.24v-9.066c1.191-.028,1.77-.9,2.268-1.793.534-.96.992-1.966,1.431-2.973a3.52,3.52,0,0,1,1.184-1.51,4.72,4.72,0,0,0,1.824-3.461c.084-.594.153-1.19.2-1.788.028-.4.224-.532.592-.537a2.464,2.464,0,0,1,2.244,1.72,4.844,4.844,0,0,1-.254,3.508c-.27.624-.611,1.217-.873,1.844a7.083,7.083,0,0,0-.336,1.208c-.093.421.124.591.531.585.892-.011,1.783-.032,2.675-.013.778.016,1.557.049,2.33.131a2.531,2.531,0,0,1,1.948,2.153,1.868,1.868,0,0,1-.347.831c-.441.742-.447.828.063,1.505a1.167,1.167,0,0,1-.181,1.625,1.109,1.109,0,0,0-.208,1.485,1.272,1.272,0,0,1-.326,1.734,1.853,1.853,0,0,0-.739,1.7,1.5,1.5,0,0,1-.408.942,3.639,3.639,0,0,1-2.937,1.26,36.152,36.152,0,0,1-8.707-.719C470.023,610.463,469.368,610.365,468.7,610.24Z" transform="translate(-463.322 -589.112)"/><path class="b" d="M465.949,609.616c0,1.362,0,2.724,0,4.085,0,.713-.292,1-1,1-.827,0-1.654.006-2.48,0a.835.835,0,0,1-.93-.931q-.008-4.157,0-8.316a.811.811,0,0,1,.882-.925c.875-.021,1.751-.02,2.626,0,.621.012.9.312.9.955C465.954,606.86,465.949,608.238,465.949,609.616Z" transform="translate(-461.536 -592.955)"/></g></g></svg>